# xmcd
#
# Track frame offsets:
#   150
#   20144
#   36876
#   61126
#   80612
#   104320
#   122825
#   141842
#   165913
#   192577
#   207393
#   234400
#   252743
#   275469
#   295497
#
# Disc length: 4195 seconds
#
# Revision: 0
# Processed by: cddbd v1.4PL0 Copyright (c) Steve Scherf et al.
# Submitted via: uFREEDB ActiveX Control 1.5
#
DISCID=e410610f
DTITLE=Dj dero  - euforia
DYEAR=1900
DGENRE=Dance
TTITLE0=Do the rave stomp
TTITLE1=enegia
TTITLE2=tekno
TTITLE3=xta-sys
TTITLE4=himno rave
TTITLE5=Pareido perdido
TTITLE6=Batucada
TTITLE7=La campana
TTITLE8=Sube
TTITLE9=Ican't wait
TTITLE10=In my house
TTITLE11=El tren
TTITLE12=Showtime
TTITLE13=Chengue chu
TTITLE14=Aurora
EXTD=
EXTT0=
EXTT1=
EXTT2=
EXTT3=
EXTT4=
EXTT5=
EXTT6=
EXTT7=
EXTT8=
EXTT9=
EXTT10=
EXTT11=
EXTT12=
EXTT13=
EXTT14=
PLAYORDER=
